<svg fill="none" viewBox="0 0 69 65" xmlns="http://www.w3.org/2000/svg" class="logo" height="32">
<path xmlns="http://www.w3.org/2000/svg" d="M52.1904 19.4285C58.4522 19.1009 63.4236 22.62 66.1152 24.7991C69.6008 27.6242 61.6712 33.8711 59.435 34.6262C57.4551 35.2947 55.215 36.5516 54.183 37.748C57.4287 38.3506 69.9662 41.0983 67.7608 46.3332C67.2309 47.5581 66.0315 48.2132 64.7624 47.9853C46.9534 44.7096 35.0016 46.1481 11.2794 63.3099C8.31688 65.5102 6.2127 61.9893 6.6633 59.3078C7.1284 56.5401 9.66862 49.3668 16.1087 42.8154C10.6084 43.3615 3.77703 42.3038 1.09885 36.8337C-1.34487 31.8076 0.62011 26.5607 3.73464 22.4491C6.55815 18.7113 10.3224 8.26355 5 4.6771C3.85556 3.90594 0.453918 2.55049 0.583622 1.37722C0.697204 0.349776 2.27328 0.0385946 5 0.00126907C7.77899 -0.0367691 11.9139 0.777049 16.087 2.88013C26.468 8.11183 21.1226 19.0597 16.1087 26.3901C12.8485 31.1567 9.43856 40.0537 19.1171 38.5013C26.7765 37.2727 42.1602 33.1958 45.0706 24.4442C44.3028 23.4868 40.8528 20.1642 43 19.0013C46.4447 17.1355 50.0985 18.3746 52.1904 19.4285Z" fill="#F93B55"></path>
</svg>